<!-- public/icons/kakao.svg -->
<svg xmlns="http://www.w3.org/2000/svg" viewBox="0 0 256 256" role="img" aria-label="KakaoTalk">
  <!-- bubble -->
  <path
    fill="#000000"
    d="M128 44c-50.8 0-92 32.5-92 72.5 0 26.1 18.2 49 45.8 61.8l-9.7 35.9a6 6 0 0 0 9 6.7l41.2-26.4c1.9.1 3.8.2 5.7.2 50.8 0 92-32.5 92-72.5S178.8 44 128 44z"
  />
  <!-- TALK text -->
  <g fill="#ffffff">
    <path d="M78 92h54c3.3 0 6 2.7 6 6s-2.7 6-6 6h-20v50c0 3.3-2.7 6-6 6s-6-2.7-6-6v-50H78c-3.3 0-6-2.7-6-6s2.7-6 6-6z"/>
    <path d="M150 92c3.3 0 6 2.7 6 6v22h18c3.3 0 6 2.7 6 6s-2.7 6-6 6h-18v22c0 3.3-2.7 6-6 6s-6-2.7-6-6V98c0-3.3 2.7-6 6-6z"/>
  </g>
</svg>
